<svg width="60" height="60" viewBox="0 0 60 60" fill="none" xmlns="http://www.w3.org/2000/svg">
<g clip-path="url(#clip0_3158_2474)">
<path d="M42.5315 17.1497L41.6701 12.379C37.3033 9.08821 31.982 7.31211 26.5142 7.32034C12.5784 7.32034 1.28104 18.6177 1.28104 32.5535C1.28104 46.4893 12.5784 57.7866 26.5142 57.7866C40.45 57.7866 51.7473 46.4893 51.7473 32.5535C51.7556 27.3309 50.1354 22.2356 47.1122 17.9769L42.5315 17.1497Z" fill="#E42E44"/>
<path d="M40.2974 46.3378C47.9101 38.725 47.9101 26.3824 40.2974 18.7697C32.6847 11.1569 20.342 11.1569 12.7293 18.7697C5.11655 26.3824 5.11655 38.725 12.7293 46.3378C20.342 53.9505 32.6847 53.9505 40.2974 46.3378Z" fill="white"/>
<path d="M47.1149 17.9778L42.684 17.1777C46.0833 21.5822 47.924 26.9906 47.9173 32.5543C47.9173 45.8447 37.6395 56.7266 24.6005 57.7072C25.233 57.7556 25.8714 57.7874 26.5168 57.7874C40.4526 57.7874 51.75 46.4901 51.75 32.5543C51.7583 27.3317 50.1381 22.2364 47.1149 17.9778Z" fill="#BC2742"/>
<path d="M42.4964 16.9373L41.6704 12.379C37.3043 9.08869 31.9839 7.31262 26.5168 7.32034C25.8714 7.32034 25.233 7.3522 24.6005 7.40058C28.0816 7.66304 31.47 8.64635 34.5508 10.2881C37.6315 11.9298 40.3373 14.1942 42.4964 16.9373Z" fill="#BC2742"/>
<path d="M40.2974 46.3378C47.9101 38.725 47.9101 26.3824 40.2974 18.7697C32.6847 11.1569 20.342 11.1569 12.7293 18.7697C5.11655 26.3824 5.11655 38.725 12.7293 46.3378C20.342 53.9505 32.6847 53.9505 40.2974 46.3378Z" stroke="black" stroke-width="1.42938" stroke-linecap="round" stroke-linejoin="round"/>
<path d="M36.0816 42.1141C41.3617 36.834 41.3617 28.2734 36.0816 22.9933C30.8016 17.7133 22.2409 17.7133 16.9608 22.9933C11.6808 28.2734 11.6808 36.834 16.9608 42.1141C22.2409 47.3942 30.8016 47.3942 36.0816 42.1141Z" fill="#E42E44"/>
<path d="M36.0816 42.1141C41.3617 36.834 41.3617 28.2734 36.0816 22.9933C30.8016 17.7133 22.2409 17.7133 16.9608 22.9933C11.6808 28.2734 11.6808 36.834 16.9608 42.1141C22.2409 47.3942 30.8016 47.3942 36.0816 42.1141Z" stroke="black" stroke-width="1.42938" stroke-linecap="round" stroke-linejoin="round"/>
<path d="M31.2595 37.3022C33.882 34.6797 33.882 30.4277 31.2594 27.8052C28.6369 25.1827 24.385 25.1827 21.7625 27.8052C19.1399 30.4277 19.1399 34.6797 21.7625 37.3022C24.385 39.9247 28.6369 39.9247 31.2595 37.3022Z" fill="white"/>
<path d="M31.2595 37.3022C33.882 34.6797 33.882 30.4277 31.2594 27.8052C28.6369 25.1827 24.385 25.1827 21.7625 27.8052C19.1399 30.4277 19.1399 34.6797 21.7625 37.3022C24.385 39.9247 28.6369 39.9247 31.2595 37.3022Z" stroke="black" stroke-width="1.42938" stroke-linecap="round" stroke-linejoin="round"/>
<path d="M42.534 17.1492L41.2408 9.98783L49.4866 1.74316L50.7787 8.90459L42.534 17.1492Z" fill="#49494A"/>
<path d="M42.5341 17.1499L49.6956 18.4432L57.9402 10.1986L50.7788 8.90527L42.5341 17.1499Z" fill="#49494A"/>
<path d="M47.9845 11.7139L26.5309 33.1674" stroke="black" stroke-width="1.42938" stroke-linecap="round" stroke-linejoin="round"/>
<path d="M42.534 17.1492L41.2408 9.98783L49.4866 1.74316L50.7787 8.90459L42.534 17.1492Z" stroke="black" stroke-width="1.42938" stroke-linecap="round" stroke-linejoin="round"/>
<path d="M42.5341 17.1499L49.6956 18.4432L57.9402 10.1986L50.7788 8.90527L42.5341 17.1499Z" stroke="black" stroke-width="1.42938" stroke-linecap="round" stroke-linejoin="round"/>
<path d="M42.5315 17.1497L41.6701 12.379C37.3033 9.08821 31.9821 7.31211 26.5142 7.32034C12.5784 7.32034 1.28104 18.6177 1.28104 32.5535C1.28104 46.4893 12.5784 57.7866 26.5142 57.7866C40.45 57.7866 51.7473 46.4893 51.7473 32.5535C51.7556 27.3309 50.1354 22.2356 47.1122 17.9769L42.5315 17.1497Z" stroke="black" stroke-width="1.42938" stroke-linecap="round" stroke-linejoin="round"/>
</g>
<defs>
<clipPath id="clip0_3158_2474">
<rect width="59" height="59" fill="white" transform="translate(0.101562 0.265625)"/>
</clipPath>
</defs>
</svg>
