<svg width="146" height="136" viewBox="0 0 146 136" fill="none" xmlns="http://www.w3.org/2000/svg">
<g opacity="0.2">
<path d="M66.8919 164.083H111.642C148.934 164.083 163.85 149.167 163.85 111.875V67.1251C163.85 29.8334 148.934 14.9167 111.642 14.9167H66.8919C29.6003 14.9167 14.6836 29.8334 14.6836 67.1251V111.875C14.6836 149.167 29.6003 164.083 66.8919 164.083Z" stroke="#EBCC48" stroke-width="14.9167" stroke-linecap="round" stroke-linejoin="round"/>
<path d="M14.6836 94.7216L59.4336 94.5724C65.0273 94.5724 71.2923 98.8236 73.3807 104.044L81.8832 125.524C83.8223 130.372 86.8803 130.372 88.8194 125.524L105.899 82.1916C107.54 78.0149 110.598 77.8657 112.686 81.8186L120.443 96.5116C122.755 100.912 128.722 104.492 133.644 104.492H163.925" stroke="#EBCC48" stroke-width="14.9167" stroke-linecap="round" stroke-linejoin="round"/>
</g>
</svg>
